<?xml version="1.0" encoding="utf-8"?>
<!-- Generator: Adobe Illustrator 18.1.1, SVG Export Plug-In . SVG Version: 6.00 Build 0)  -->
<!DOCTYPE svg PUBLIC "-//W3C//DTD SVG 1.1//EN" "http://www.w3.org/Graphics/SVG/1.1/DTD/svg11.dtd">
<svg version="1.1" id="Layer_1" xmlns="http://www.w3.org/2000/svg" xmlns:xlink="http://www.w3.org/1999/xlink" x="0px" y="0px"
	 viewBox="0 0 158 35" enable-background="new 0 0 158 35" xml:space="preserve">
<g>
	<path fill="#D3D9DD" d="M49.8,23c-0.4,0.1-1,0.2-1.5,0.2c-1.1,0-1.5-0.7-1.5-1.7v-4.9h3.1c0.8,0,1.5-0.5,1.5-1.4s-0.7-1.4-1.5-1.4
		h-3.1v-1.6c0-1-0.8-1.6-1.6-1.6c-0.9,0-1.6,0.8-1.6,1.6v9.5c0,2.7,1.3,4.7,4.4,4.7c0.9,0,2.1-0.1,2.9-0.5c0.8-0.3,1-0.9,1-1.4
		C51.8,23.6,51,22.8,49.8,23z M60.8,13.3c-0.4-0.1-1.3-0.2-2.1-0.2c-2.7,0-4.3,1.6-4.3,4.1v7.4c0,0.9,0.8,1.6,1.6,1.6
		s1.6-0.8,1.6-1.6v-6.8c0-1.1,0.4-1.5,1.2-1.5c0.8,0,1.2,0.2,1.9,0.2c1,0,1.5-0.9,1.5-1.5C62.2,14.2,61.7,13.6,60.8,13.3z
		 M69.8,13.1c-3.1,0-5.2,2-5.6,5.1c0,0.8-0.1,2.1,0,3.1c0.2,3.1,2.4,5.1,5.7,5.1c1.5,0,2.9-0.3,3.8-0.9c0.7-0.4,0.8-0.9,0.8-1.3
		c0-0.9-0.8-1.7-2.1-1.3c-0.8,0.3-1.6,0.5-2.5,0.5c-1.5,0-2.7-0.8-2.7-2.3v-0.3h6.2c1.1,0,1.6-0.7,1.6-1.6v-0.5
		C75.2,15.3,73,13.1,69.8,13.1z M71.9,18.6h-4.6c0-1.6,0.8-2.7,2.5-2.7c1.5,0,2.4,1,2.3,2.4C72.1,18.5,72.1,18.6,71.9,18.6z
		 M82.9,13.1c-3.1,0-5.2,2-5.6,5.1c0,0.8-0.1,2.1,0,3.1c0.2,3.1,2.4,5.1,5.7,5.1c1.5,0,2.9-0.3,3.8-0.9c0.7-0.4,0.8-0.9,0.8-1.3
		c0-0.9-0.8-1.7-2.1-1.3c-0.8,0.3-1.6,0.5-2.5,0.5c-1.5,0-2.7-0.8-2.7-2.3v-0.3h6.2c1.1,0,1.6-0.7,1.6-1.6v-0.5
		C88.3,15.3,86.1,13.1,82.9,13.1z M85,18.6h-4.6c0-1.6,0.8-2.7,2.5-2.7c1.5,0,2.4,1,2.3,2.4C85.2,18.5,85.2,18.6,85,18.6z
		 M138.1,18.5l-1.7-0.4c-1.1-0.2-1.4-0.5-1.4-1.1c0-0.5,0.5-1,1.7-1c0.7,0,1.4,0.2,2.1,0.5c0.8,0.4,1.6,0.3,2.1-0.2
		c0.5-0.5,0.5-1.5-0.1-2.2c-0.9-0.7-2.4-1.1-3.9-1.1c-2.8,0-4.9,1.4-4.9,4c0,2.1,1.5,3.2,3.5,3.7c1,0.2,0.9,0.2,1.7,0.4
		c1,0.2,1.4,0.7,1.4,1.1c0,0.7-0.5,1.1-1.9,1.1c-1.1,0-2.1-0.3-2.8-0.8c-0.8-0.5-1.6-0.3-2.1,0.3c-0.4,0.7-0.3,1.5,0.3,2
		c0.9,0.8,2.3,1.4,4.6,1.4c2.8,0,5-1.5,5-4.1C141.7,20.3,140.5,19.1,138.1,18.5z M153.3,20.8c1.1,0,1.6-0.7,1.6-1.6l0,0v-0.5
		c0-3.4-2.2-5.6-5.4-5.6c-3.1,0-5.2,2-5.6,5.1c0,0.8-0.1,2.1,0,3.1c0.2,3.1,2.4,5.1,5.7,5.1c1.5,0,2.9-0.3,3.8-0.9
		c0.7-0.4,0.8-0.9,0.8-1.3c0-0.9-0.8-1.7-2.1-1.3c-0.8,0.3-1.6,0.5-2.5,0.5c-1.5,0-2.7-0.8-2.7-2.3v-0.3H153.3z M149.5,15.9
		c1.5,0,2.4,1,2.3,2.4c0,0.2-0.1,0.3-0.2,0.3H147C147,17,147.9,15.9,149.5,15.9z M109.6,13.1c-3.3,0-5.7,2.1-6,4.9
		c-0.1,1-0.1,2.5,0,3.5c0.2,2.8,2.7,4.9,6,4.9s5.7-2.1,5.9-4.9c0.1-1,0.1-2.4,0-3.4C115.3,15.2,112.9,13.1,109.6,13.1z M112.2,20.9
		c-0.1,1.4-1.1,2.3-2.6,2.3s-2.5-1-2.6-2.3c0-0.7,0-1.7,0-2.4c0.1-1.4,1.1-2.3,2.6-2.3s2.5,1,2.6,2.3
		C112.3,19.2,112.3,20.3,112.2,20.9z M96.6,13.1c-1.2,0-2.5,0.4-2.9,1l0,0v-3.5c0-1-0.7-1.6-1.5-1.6c-0.9,0-1.5,0.8-1.5,1.6v14.1
		c0,0.9,0.8,1.6,1.6,1.6c0.9,0,1.5-0.8,1.5-1.6v-7.3c0.5-0.5,1.4-1,2.5-1c1.3,0,2.1,0.8,2.1,2.3v6c0,1,0.7,1.7,1.5,1.7
		c1,0,1.6-0.8,1.6-1.7v-6.2C101.4,14.9,99.6,13.1,96.6,13.1z M127.2,13.2c-0.9,0-1.6,0.8-1.6,1.6v7.8c-0.5,0.3-1.3,0.7-2.3,0.7
		c-1.3,0-2.3-0.8-2.3-2.3v-6.1c0-1-0.8-1.7-1.6-1.7c-1,0-1.5,0.8-1.5,1.7V21c0,3.4,2,5.2,5.4,5.2c2.5,0,4.3-0.9,5-1.4
		c0.4-0.2,0.5-0.5,0.5-1.1v-9C128.7,14,128,13.2,127.2,13.2z"/>
	<path fill="#D3D9DD" d="M34.1,7.7c-0.4-0.2-1.4-0.7-2.5-1.3c-1.2-0.7-3.1,0.4-4.3,2.3l-2.1,3.5c-0.8,1.5-0.7,3.2,0.3,4.6l0.1,0.1
		c1,1.4,2.3,2.6,2.6,3.1c0.2,0.2,0.4,0.7,0.5,1c0.3,1.3-0.3,2.5-1.6,2.8c-1.2,0.3-2.5-0.4-2.9-1.6c-0.1-0.3-0.1-0.7-0.1-1
		c0.1-0.5-0.1-1.4-0.9-2.1c-0.8-0.9-2.3,0.8-2.7,2.3v0.1c-0.4,1.6-0.8,2.9-0.7,3.1c0,0.1,0.1,0.2,0.1,0.2c0.7,1.3,0.2,2.8-1.1,3.5
		c-1.3,0.7-2.9,0.2-3.6-1.1s-0.2-2.8,1.1-3.5c0.1,0,0.1-0.1,0.2-0.1c0.1,0,0.3-0.8,0.7-1.5c0.2-0.8,0.4-1.4,0.4-1.4
		c0-0.1,0-0.2,0.1-0.2l1.3-4.6l-1.3,2.7c-0.2-0.5-0.4-0.5-1.1-0.1c-0.3,0.2-1,0.8-1.2,1c-0.5,0.4-1,1.2-1.2,1.6
		c-0.1,0.3-0.3,0.5-0.5,0.8c-1,0.9-2.5,0.7-3.3-0.3c-0.8-1-0.5-2.3,0.4-3.1c0.3-0.2,0.7-0.4,1-0.4c0.5-0.1,2.6-1.4,3.8-2.2
		c0.2-0.1,0.4-0.3,0.5-0.4l3.2-2.3l-2.8,1.5c0,0-0.3,0-0.7,0c-0.9,0.1-2,0.2-2.2,0.5c-0.1,0.1-0.2,0.3-0.4,0.4
		c-0.9,0.4-2.2,0.2-2.9-0.7c-0.7-1-0.4-2.2,0.4-2.8c0.5-0.3,1-0.4,1.4-0.4c0.8,0,2.7,0.4,4.4,0.1l0.4-0.1c1.6-0.3,3.6-1.6,4.4-3.2
		c0,0,0.8-1.4,1.7-2.9c1-1.6,0.9-3.4-0.1-4l-1.9-1.1c-1-0.5-2.5-0.5-3.5,0L4.9,7.5c-1,0.5-1.7,2-1.7,3.1v14c0,1.1,0.8,2.3,1.7,2.8
		l13,7.2c1,0.5,2.5,0.5,3.5,0l12.8-7.3c1-0.5,1.7-1.7,1.7-2.8V10.6C35.9,9.5,35.1,8.3,34.1,7.7z"/>
</g>
</svg>
